# xmcd CD database file generated by Grip 3.2.0
# 
# Track frame offsets:
#       150
#       15481
#       30360
#       51710
#       69465
#       87470
#       103507
#       119817
#       134144
#       148212
#       176942
#       193033
# 
# Disc length: 2738 seconds
# 
# Revision: 1
# Processed by: cddbd v1.5.2PL0 Copyright (c) Steve Scherf et al.
# Submitted via: Grip 3.2.0
# 
DISCID=bd0ab00c
DTITLE=Maria Muldaur - Naughty Bawdy and Blue
DYEAR=2007
DGENRE=Blues
TTITLE0=Down Home Blues
TTITLE1=Up The Country Blues
TTITLE2=Separation Blues (with Bonnie Raitt)
TTITLE3=A Good Man Is Hard To Find
TTITLE4=Handy Man
TTITLE5=New Orleans Hop Scop Blues
TTITLE6=Smile
TTITLE7=TB Blues
TTITLE8=One Hour Mama
TTITLE9=Empty Bed Blues
TTITLE10=Early Every Morn
TTITLE11=Yonder Come the Blues
EXTD=
EXTT0=
EXTT1=
EXTT2=
EXTT3=
EXTT4=
EXTT5=
EXTT6=
EXTT7=
EXTT8=
EXTT9=
EXTT10=
EXTT11=
PLAYORDER=
